<?xml version="1.0" encoding="UTF-8" standalone="no"?>
<svg
   xmlns:dc="http://purl.org/dc/elements/1.1/"
   xmlns:cc="http://creativecommons.org/ns#"
   xmlns:rdf="http://www.w3.org/1999/02/22-rdf-syntax-ns#"
   xmlns:svg="http://www.w3.org/2000/svg"
   xmlns="http://www.w3.org/2000/svg"
   xmlns:sodipodi="http://sodipodi.sourceforge.net/DTD/sodipodi-0.dtd"
   xmlns:inkscape="http://www.inkscape.org/namespaces/inkscape"
   id="Capa_1"
   enable-background="new 0 0 512.008 512.008"
   height="512"
   viewBox="0 0 512.008 512.008"
   width="512"
   version="1.1"
   sodipodi:docname="menu-today.svg"
   inkscape:version="0.92.5 (0.92.5+69)">
  <metadata
     id="metadata31">
    <rdf:RDF>
      <cc:Work
         rdf:about="">
        <dc:format>image/svg+xml</dc:format>
        <dc:type
           rdf:resource="http://purl.org/dc/dcmitype/StillImage" />
      </cc:Work>
    </rdf:RDF>
  </metadata>
  <defs
     id="defs29" />
  <sodipodi:namedview
     pagecolor="#ffffff"
     bordercolor="#666666"
     borderopacity="1"
     objecttolerance="10"
     gridtolerance="10"
     guidetolerance="10"
     inkscape:pageopacity="0"
     inkscape:pageshadow="2"
     inkscape:window-width="960"
     inkscape:window-height="1010"
     id="namedview27"
     showgrid="false"
     inkscape:zoom="0.16296602"
     inkscape:cx="387.82216"
     inkscape:cy="-809.74908"
     inkscape:window-x="960"
     inkscape:window-y="34"
     inkscape:window-maximized="0"
     inkscape:current-layer="Capa_1" />
  <path
     style="fill:#e6e6e6;fill-opacity:1"
     inkscape:connector-curvature="0"
     id="path2"
     d="m 421.362,65.028 c 82.9,54.86 105.63,166.55 50.77,249.45 l -300.21,-198.68 c 54.86,-82.91 166.54,-105.63 249.44,-50.77 z" />
  <path
     style="fill:#e6e6e6;fill-opacity:1"
     inkscape:connector-curvature="0"
     id="path4"
     d="m 454.472,14.998 c 13.82,9.14 17.61,27.75 8.46,41.57 -9.14,13.82 -27.75,17.6 -41.57,8.46 -13.82,-9.14 -17.6,-27.76 -8.46,-41.57 9.14,-13.82 27.76,-17.61 41.57,-8.46 z" />
  <path
     style="fill:#ffcc00;fill-opacity:1"
     inkscape:connector-curvature="0"
     id="path6"
     d="m 40.042,442.008 h 402 c -16.57,0 -30,13.43 -30,30 0,16.57 -13.43,30 -30,30 h -282 c -16.57,0 -30,-13.43 -30,-30 0,-16.57 -13.43,-30 -30,-30 z" />
  <path
     d="m 278.832,286.008 c 22.03,0 37.21,18.49 37.21,40.39 0,30.07 -29.88,40.5 -75,79.61 -44.14,-38.25 -73.85,-49.31 -73.85,-79.61 0,-21.9 15.19,-40.39 37.22,-40.39 28.28,0 36.63,33 36.63,33 0,0 9.51,-33 37.79,-33 z"
     id="path10"
     inkscape:connector-curvature="0"
     style="fill:#ef3829;fill-opacity:1" />
  <g
     id="g22"
     style="stroke:none;stroke-opacity:1;fill:#422002;fill-opacity:1">
    <path
       inkscape:connector-curvature="0"
       id="path14"
       d="m 166.403,124.138 300.21,198.68 c 4.584,3.035 10.799,1.803 13.857,-2.821 51.641,-78.035 37.976,-180.594 -27.781,-242.814 7.552,-2.982 14.006,-8.181 18.58,-15.094 12.199,-18.423 7.173,-43.227 -11.274,-55.426 -18.426,-12.21 -43.234,-7.167 -55.432,11.276 -4.567,6.901 -6.83,14.861 -6.633,22.965 -82.039,-35.95 -182.048,-9.664 -234.349,69.376 -3.046,4.606 -1.784,10.81 2.822,13.858 z m 254.84,-95.163 c 6.062,-9.166 18.444,-11.775 27.713,-5.635 9.218,6.097 11.743,18.487 5.638,27.708 -10e-4,10e-4 -0.002,0.003 -0.003,0.004 -6.095,9.217 -18.489,11.736 -27.712,5.635 -9.214,-6.092 -11.739,-18.49 -5.636,-27.712 z m -5.402,44.391 c 10e-4,0.001 0.002,0.002 0.004,0.003 10e-4,0 10e-4,0.001 0.002,0.001 75.368,49.879 98.061,149.917 53.222,227.09 L 186.018,113.136 C 239.481,41.642 340.169,23.29 415.841,73.366 Z"
       style="stroke:none;stroke-opacity:1;fill:#422002;fill-opacity:1" />
    <path
       inkscape:connector-curvature="0"
       id="path16"
       d="m 201.834,387.362 c 9.666,7.393 20.621,15.772 32.659,26.204 1.879,1.629 4.214,2.443 6.549,2.443 2.335,0 4.671,-0.814 6.55,-2.443 12.769,-11.068 24.253,-19.764 34.385,-27.435 25.582,-19.371 44.065,-33.366 44.065,-59.731 0,-28.256 -20.737,-50.39 -47.21,-50.39 -18.266,0 -30.175,10.273 -37.489,20.445 -7.021,-10.199 -18.629,-20.445 -36.931,-20.445 -26.479,0 -47.22,22.134 -47.22,50.39 0,26.818 18.725,41.139 44.642,60.962 z m 2.578,-91.354 c 20.032,0 26.673,24.452 26.936,25.453 1.104,4.364 4.994,7.433 9.496,7.525 0.068,0.001 0.136,0.002 0.205,0.002 4.417,0 8.329,-2.923 9.591,-7.173 0.313,-1.054 7.899,-25.807 28.192,-25.807 15.512,0 27.21,13.065 27.21,30.39 0,15.793 -10.432,24.321 -36.139,43.787 -8.639,6.541 -18.236,13.808 -28.861,22.692 -9.898,-8.277 -18.925,-15.181 -27.058,-21.401 -25.513,-19.513 -36.792,-28.825 -36.792,-45.077 0,-17.326 11.702,-30.391 27.22,-30.391 z"
       style="stroke:none;stroke-opacity:1;fill:#422002;fill-opacity:1" />
    <circle
       id="circle18"
       r="10"
       cy="502.008"
       cx="241.041"
       style="stroke:none;stroke-opacity:1;fill:#422002;fill-opacity:1" />
    <path
       inkscape:connector-curvature="0"
       id="path20"
       d="m 10.042,452.008 h 30 c 11.028,0 20,8.972 20,20 0,22.056 17.944,40 40,40 h 96 c 5.522,0 10,-4.477 10,-10 0,-5.523 -4.478,-10 -10,-10 h -96 c -11.028,0 -20,-8.972 -20,-20 0,-7.283 -1.966,-14.112 -5.381,-20.01 h 332.763 c -3.415,5.898 -5.381,12.727 -5.381,20.01 0,11.028 -8.972,20 -20,20 h -96 c -5.522,0 -10,4.477 -10,10 0,5.523 4.478,10 10,10 h 96 c 22.056,0 40,-17.944 40,-40 0,-11.028 8.972,-20 20,-20 h 30 c 5.522,0 10,-4.477 10,-10 0,-5.523 -4.478,-10 -10,-10 -15.554,0 -445.181,0 -462,0 -5.522,0 -10,4.477 -10,10 0,5.523 4.476,10 9.999,10 z"
       style="stroke:none;stroke-opacity:1;fill:#422002;fill-opacity:1" />
  </g>
</svg>
