<?xml version="1.0" encoding="UTF-8" standalone="no"?>
<svg
   xmlns:dc="http://purl.org/dc/elements/1.1/"
   xmlns:cc="http://creativecommons.org/ns#"
   xmlns:rdf="http://www.w3.org/1999/02/22-rdf-syntax-ns#"
   xmlns:svg="http://www.w3.org/2000/svg"
   xmlns="http://www.w3.org/2000/svg"
   xmlns:sodipodi="http://sodipodi.sourceforge.net/DTD/sodipodi-0.dtd"
   xmlns:inkscape="http://www.inkscape.org/namespaces/inkscape"
   height="512"
   viewBox="0 0 128 128"
   width="512"
   version="1.1"
   id="svg26"
   sodipodi:docname="menu.svg"
   inkscape:version="0.92.5 (0.92.5+69)">
  <metadata
     id="metadata32">
    <rdf:RDF>
      <cc:Work
         rdf:about="">
        <dc:format>image/svg+xml</dc:format>
        <dc:type
           rdf:resource="http://purl.org/dc/dcmitype/StillImage" />
      </cc:Work>
    </rdf:RDF>
  </metadata>
  <defs
     id="defs30" />
  <sodipodi:namedview
     pagecolor="#ffffff"
     bordercolor="#666666"
     borderopacity="1"
     objecttolerance="10"
     gridtolerance="10"
     guidetolerance="10"
     inkscape:pageopacity="0"
     inkscape:pageshadow="2"
     inkscape:window-width="960"
     inkscape:window-height="1010"
     id="namedview28"
     showgrid="false"
     inkscape:snap-page="true"
     inkscape:zoom="0.4609375"
     inkscape:cx="301.55933"
     inkscape:cy="145.98453"
     inkscape:window-x="960"
     inkscape:window-y="34"
     inkscape:window-maximized="0"
     inkscape:current-layer="svg26" />
  <path
     style="fill:#ef3829"
     inkscape:connector-curvature="0"
     id="path2"
     d="M 18.145,6.306 H 31.393 V 121.693 H 18.145 Z" />
  <path
     style="fill:#ffde3e"
     inkscape:connector-curvature="0"
     id="path4"
     d="m 31.394,6.306 h 64.382 a 14.079,14.079 0 0 1 14.079,14.079 v 87.23 A 14.079,14.079 0 0 1 95.776,121.694 H 31.394 Z" />
  <path
     style="fill:#422002"
     d="m 18.146,102.779 a 1.75,1.75 0 0 0 1.75,-1.75 v -4.5 a 1.75,1.75 0 0 0 -3.5,0 v 4.5 a 1.749,1.749 0 0 0 1.75,1.75 z"
     id="path6"
     inkscape:connector-curvature="0" />
  <path
     style="fill:#422002"
     d="m 109.854,28.987 a 1.749,1.749 0 0 0 1.75,-1.75 V 20.385 A 15.845,15.845 0 0 0 95.776,4.557 h -77.63 a 1.749,1.749 0 0 0 -1.75,1.75 v 81.568 a 1.75,1.75 0 0 0 3.5,0 V 8.057 h 9.748 V 119.943 H 19.9 v -10.675 a 1.75,1.75 0 0 0 -3.5,0 v 12.425 a 1.749,1.749 0 0 0 1.75,1.75 h 77.63 a 15.845,15.845 0 0 0 15.82,-15.828 v -72.7 a 1.75,1.75 0 0 0 -3.5,0 v 72.7 A 12.342,12.342 0 0 1 95.772,119.943 H 33.144 V 8.057 H 95.776 A 12.342,12.342 0 0 1 108.1,20.385 v 6.852 a 1.75,1.75 0 0 0 1.754,1.75 z"
     id="path8"
     inkscape:connector-curvature="0" />
  <g
     transform="matrix(0.33402727,0,0,0.33402727,44.864647,43.030364)"
     id="g14">
    <path
       style="fill:#8c3f07"
       inkscape:connector-curvature="0"
       d="m 109.506,18.494 c 0,0 -23.425,-25.152 -45.4,-3.237 -21.329,21.273 -6.137,40.816 -20.158,55.315 0,0 -0.188,6.285 6.74,6.74 0.455,6.928 6.74,6.74 6.74,6.74 14.5,-14.021 34.042,1.171 55.315,-20.159 21.915,-21.974 -3.237,-45.399 -3.237,-45.399 z"
       id="path2-3" />
    <path
       style="fill:#f2e7cb"
       inkscape:connector-curvature="0"
       d="M 50.688,77.312 A 6.812,6.812 0 0 1 45.252,74.628 L 30.71,89.169 C 26.283,93.596 21.476,92.028 14.241,91.92 7.006,91.812 3.562,99.792 8.853,105.083 a 10.636,10.636 0 0 0 11.233,2.831 10.636,10.636 0 0 0 2.831,11.233 c 5.291,5.291 13.271,1.846 13.163,-5.388 -0.108,-7.234 -1.68,-12.042 2.751,-16.469 L 53.37,82.751 a 6.813,6.813 0 0 1 -2.682,-5.439 z"
       id="path4-6" />
    <g
       style="fill:#422002"
       id="g12">
      <path
         inkscape:connector-curvature="0"
         d="M 110.744,17.255 C 109.844,16.307 98.693,4.811 84.316,4.545 76.552,4.391 69.316,7.589 62.871,14.018 50.612,26.244 49.949,37.949 49.364,48.276 48.907,56.357 48.512,63.335 42.69,69.356 a 1.753,1.753 0 0 0 -0.49,1.164 8.7,8.7 0 0 0 0.845,3.84 l -4.51,4.511 a 1.75,1.75 0 1 0 2.475,2.474 l 4.207,-4.208 a 8.643,8.643 0 0 0 3.907,1.74 8.65,8.65 0 0 0 1.738,3.909 L 37.594,96.053 c -4.045,4.044 -3.772,8.432 -3.455,13.513 0.083,1.339 0.169,2.724 0.191,4.219 a 5.913,5.913 0 0 1 -3.46,5.741 6.028,6.028 0 0 1 -6.716,-1.616 8.879,8.879 0 0 1 -2.451,-9.327 1.75,1.75 0 0 0 -2.286,-2.286 8.89,8.89 0 0 1 -9.326,-2.451 6.028,6.028 0 0 1 -1.616,-6.717 5.852,5.852 0 0 1 5.74,-3.459 c 1.5,0.022 2.881,0.108 4.22,0.191 5.084,0.317 9.468,0.589 13.512,-3.455 L 35.58,86.773 A 1.7511517,1.7511517 0 1 0 33.1,84.3 l -3.632,3.632 c -2.929,2.928 -6.071,2.734 -10.821,2.437 -1.38,-0.086 -2.806,-0.174 -4.384,-0.2 a 9.358,9.358 0 0 0 -9.017,5.6 9.532,9.532 0 0 0 2.37,10.551 12.435,12.435 0 0 0 10.2,3.868 12.435,12.435 0 0 0 3.868,10.2 10.007,10.007 0 0 0 7.053,3.079 8.958,8.958 0 0 0 3.5,-0.713 9.35,9.35 0 0 0 5.6,-9.018 c -0.023,-1.577 -0.112,-3 -0.2,-4.383 -0.3,-4.753 -0.491,-7.893 2.436,-10.822 L 53.639,84.956 a 8.76,8.76 0 0 0 3.644,0.848 h 0.2 a 1.752,1.752 0 0 0 1.165,-0.491 c 6.02,-5.822 13,-6.217 21.079,-6.675 10.327,-0.584 22.032,-1.247 34.257,-13.506 6.43,-6.446 9.617,-13.662 9.473,-21.445 -0.268,-14.381 -11.766,-25.536 -12.713,-26.432 z m 0.759,45.4 c -11.28,11.312 -21.8,11.908 -31.977,12.484 -8.185,0.463 -15.93,0.9 -22.75,7.122 -1.3,-0.164 -4.074,-0.992 -4.341,-5.065 A 1.75,1.75 0 0 0 50.8,75.566 c -4.081,-0.268 -4.906,-3.057 -5.067,-4.341 6.221,-6.82 6.66,-14.565 7.122,-22.751 0.578,-10.175 1.173,-20.7 12.484,-31.977 5.743,-5.728 12.075,-8.583 18.889,-8.453 13.18,0.232 23.889,11.529 24,11.644 0.027,0.029 0.056,0.059 0.086,0.086 0.114,0.106 11.4,10.766 11.642,23.974 0.124,6.798 -2.72,13.161 -8.456,18.909 z"
         id="path6-7" />
      <path
         inkscape:connector-curvature="0"
         d="m 69.1,23.669 c -8.362,8.826 -8.458,20.989 -8.458,21.5 a 1.749,1.749 0 0 0 1.748,1.749 1.75,1.75 0 0 0 1.75,-1.746 c 0,-0.112 0.118,-11.307 7.5,-19.1 A 1.75,1.75 0 0 0 69.1,23.669 Z"
         id="path8-5" />
      <path
         inkscape:connector-curvature="0"
         d="m 84.988,15.527 a 10.688,10.688 0 0 0 -8.979,2.04 1.75,1.75 0 0 0 2.291,2.643 7.125,7.125 0 0 1 5.922,-1.267 1.7500875,1.7500875 0 0 0 0.763,-3.416 z"
         id="path10" />
    </g>
  </g>
</svg>
