<?xml version="1.0" encoding="UTF-8" standalone="no"?>
<svg
   xmlns:dc="http://purl.org/dc/elements/1.1/"
   xmlns:cc="http://creativecommons.org/ns#"
   xmlns:rdf="http://www.w3.org/1999/02/22-rdf-syntax-ns#"
   xmlns:svg="http://www.w3.org/2000/svg"
   xmlns="http://www.w3.org/2000/svg"
   xmlns:sodipodi="http://sodipodi.sourceforge.net/DTD/sodipodi-0.dtd"
   xmlns:inkscape="http://www.inkscape.org/namespaces/inkscape"
   id="Capa_1"
   enable-background="new 0 0 512 512"
   height="512"
   viewBox="0 0 512 512"
   width="512"
   version="1.1"
   sodipodi:docname="2439116.svg"
   inkscape:version="0.92.5 (0.92.5+69)">
  <metadata
     id="metadata75">
    <rdf:RDF>
      <cc:Work
         rdf:about="">
        <dc:format>image/svg+xml</dc:format>
        <dc:type
           rdf:resource="http://purl.org/dc/dcmitype/StillImage" />
      </cc:Work>
    </rdf:RDF>
  </metadata>
  <defs
     id="defs73" />
  <sodipodi:namedview
     pagecolor="#ffffff"
     bordercolor="#666666"
     borderopacity="1"
     objecttolerance="10"
     gridtolerance="10"
     guidetolerance="10"
     inkscape:pageopacity="0"
     inkscape:pageshadow="2"
     inkscape:window-width="960"
     inkscape:window-height="1010"
     id="namedview71"
     showgrid="false"
     inkscape:zoom="0.4609375"
     inkscape:cx="239.03169"
     inkscape:cy="11.069168"
     inkscape:window-x="0"
     inkscape:window-y="34"
     inkscape:window-maximized="0"
     inkscape:current-layer="Capa_1" />
  <g
     id="g24"
     style="fill-opacity:1;fill:#ffcc00">
    <g
       id="g22"
       style="fill-opacity:1;fill:#ffcc00">
      <g
         id="g20"
         style="fill-opacity:1;fill:#ffcc00">
        <path
           style="fill:#ffcc00;fill-opacity:1"
           inkscape:connector-curvature="0"
           id="path18"
           d="M 210.794,480.268 H 35.324 C 21.338,480.268 10,468.93 10,454.944 10,440.958 21.338,429.62 35.324,429.62 h 441.353 c 13.986,0 25.324,11.338 25.324,25.324 0,13.986 -11.338,25.324 -25.324,25.324 h -175.47" />
      </g>
    </g>
  </g>
  <g
     id="g8"
     style="fill:#ef3829;fill-opacity:1">
    <g
       id="g6"
       style="fill:#ef3829;fill-opacity:1">
      <g
         id="g4"
         style="fill:#ef3829;fill-opacity:1">
        <path
           d="m 395.735,102.694 c 19.414,0 34.646,21.647 34.646,21.647 0,0 14.368,-21.647 34.655,-21.647 19.732,0 35.845,16.275 36.9,35.98 0.594,11.132 -2.995,19.604 -8.051,27.278 -10.104,15.33 -63.569,60.229 -63.569,60.229 0,0 -53.264,-44.764 -63.434,-60.229 -5.067,-7.708 -8.646,-16.145 -8.049,-27.278 1.054,-19.705 17.168,-35.98 36.902,-35.98 z"
           id="path2"
           inkscape:connector-curvature="0"
           style="fill:#ef3829;fill-opacity:1" />
      </g>
    </g>
  </g>
  <g
     id="g16"
     style="fill:#ef3829;fill-opacity:1">
    <g
       id="g14"
       style="fill:#ef3829;fill-opacity:1">
      <g
         id="g12"
         style="fill:#ef3829;fill-opacity:1">
        <path
           d="m 277.205,31.731 c 13.228,0 23.606,14.749 23.606,14.749 0,0 9.79,-14.749 23.612,-14.749 13.445,0 24.424,11.089 25.142,24.515 0.405,7.585 -2.04,13.358 -5.486,18.586 -6.884,10.445 -43.313,41.038 -43.313,41.038 0,0 -36.292,-30.5 -43.222,-41.038 -3.452,-5.252 -5.891,-11.001 -5.484,-18.586 0.72,-13.426 11.699,-24.515 25.145,-24.515 z"
           id="path10"
           inkscape:connector-curvature="0"
           style="fill:#ef3829;fill-opacity:1" />
      </g>
    </g>
  </g>
  <g
     id="g40"
     style="fill:#e6e6e6;fill-opacity:1">
    <g
       id="g30"
       style="fill:#e6e6e6;fill-opacity:1">
      <g
         id="g28"
         style="fill:#e6e6e6;fill-opacity:1">
        <circle
           style="fill:#e6e6e6;fill-opacity:1"
           id="circle26"
           r="31.525999"
           cy="171.436"
           cx="256" />
      </g>
    </g>
    <g
       id="g38"
       style="fill:#e6e6e6;fill-opacity:1">
      <g
         id="g36"
         style="fill:#e6e6e6;fill-opacity:1">
        <g
           id="g34"
           style="fill:#e6e6e6;fill-opacity:1">
          <path
             style="fill:#e6e6e6;fill-opacity:1"
             inkscape:connector-curvature="0"
             id="path32"
             d="M 455.024,429.621 H 56.976 v -27.636 c 0,-109.918 89.106,-199.023 199.023,-199.023 109.918,0 199.023,89.106 199.023,199.023 v 27.636 z" />
        </g>
      </g>
    </g>
  </g>
  <g
     id="g66"
     style="fill:#422002;fill-opacity:1">
    <g
       id="g48"
       style="fill:#422002;fill-opacity:1">
      <path
         inkscape:connector-curvature="0"
         id="path46"
         d="m 300.767,125.87 c -2.287,0 -4.574,-0.781 -6.434,-2.345 -6.247,-5.25 -37.782,-32.007 -45.143,-43.197 -3.349,-5.095 -7.728,-13.187 -7.115,-24.616 1.02,-19.055 16.451,-33.98 35.13,-33.98 9.729,0 17.868,5.036 23.49,9.947 5.553,-4.932 13.672,-9.947 23.729,-9.947 18.678,0 34.107,14.926 35.127,33.981 0.612,11.455 -3.771,19.538 -7.12,24.622 -7.316,11.102 -38.964,37.928 -45.233,43.193 -1.86,1.561 -4.146,2.342 -6.431,2.342 z M 277.205,41.731 c -7.914,0 -14.714,6.752 -15.158,15.05 -0.236,4.396 0.881,8.035 3.854,12.559 3.816,5.802 21.361,21.751 34.868,33.396 13.561,-11.678 31.173,-27.658 34.961,-33.406 2.97,-4.506 4.085,-8.143 3.85,-12.55 -0.444,-8.297 -7.243,-15.049 -15.156,-15.049 -7.022,0 -13.841,8.108 -15.281,10.279 -1.827,2.752 -4.894,4.424 -8.196,4.469 -3.291,0.082 -6.413,-1.544 -8.314,-4.244 -1.937,-2.698 -8.987,-10.504 -15.428,-10.504 z"
         style="fill:#422002;fill-opacity:1" />
    </g>
    <g
       id="g54"
       style="fill:#422002;fill-opacity:1">
      <g
         id="g52"
         style="fill:#422002;fill-opacity:1">
        <path
           inkscape:connector-curvature="0"
           id="path50"
           d="m 430.316,236.18 c -2.287,0 -4.574,-0.781 -6.434,-2.345 -5.566,-4.678 -54.69,-46.172 -65.356,-62.389 -4.551,-6.925 -10.505,-17.908 -9.679,-33.308 1.363,-25.483 21.959,-45.445 46.888,-45.445 14.819,0 27.001,8.925 34.566,16.344 7.47,-7.421 19.599,-16.344 34.733,-16.344 24.928,0 45.522,19.962 46.886,45.446 0.824,15.437 -5.134,26.406 -9.687,33.314 -10.6,16.083 -59.9,57.692 -65.487,62.384 -1.858,1.562 -4.144,2.343 -6.43,2.343 z M 395.735,112.694 c -14.06,0 -26.134,11.895 -26.917,26.515 -0.398,7.442 1.521,13.798 6.42,21.251 6.204,9.434 34.262,34.807 55.081,52.611 20.898,-17.855 49.055,-43.274 55.216,-52.622 4.895,-7.427 6.813,-13.779 6.415,-21.242 -0.783,-14.618 -12.856,-26.513 -26.915,-26.513 -12.092,0 -23.115,12.421 -26.343,17.206 -1.839,2.728 -4.912,4.392 -8.201,4.425 -3.315,-0.002 -6.396,-1.538 -8.289,-4.229 -3.436,-4.824 -14.929,-17.402 -26.467,-17.402 z"
           style="fill:#422002;fill-opacity:1" />
      </g>
    </g>
    <g
       id="g64"
       style="fill:#422002;fill-opacity:1">
      <g
         id="g60"
         style="fill:#422002;fill-opacity:1">
        <g
           id="g58"
           style="fill:#422002;fill-opacity:1">
          <path
             inkscape:connector-curvature="0"
             id="path56"
             d="m 256.18,490.269 c -4.181,0 -7.997,-2.71 -9.405,-6.635 -1.39,-3.875 -0.2,-8.319 2.936,-10.987 3.271,-2.783 8.098,-3.141 11.745,-0.873 3.496,2.174 5.341,6.405 4.534,10.445 -0.921,4.615 -5.101,8.05 -9.81,8.05 z"
             style="fill:#422002;fill-opacity:1" />
        </g>
      </g>
      <path
         inkscape:connector-curvature="0"
         id="path62"
         d="m 476.677,419.621 h -11.653 v -17.636 c 0,-103.787 -76.035,-190.149 -175.326,-206.309 4.924,-6.826 7.828,-15.2 7.828,-24.241 0,-22.897 -18.628,-41.525 -41.525,-41.525 -22.897,0 -41.525,18.628 -41.525,41.525 0,9.04 2.904,17.415 7.828,24.241 -99.292,16.16 -175.326,102.522 -175.326,206.309 v 17.636 H 35.324 C 15.846,419.621 0,435.467 0,454.945 c 0,19.478 15.846,35.323 35.324,35.323 h 175.47 c 5.523,0 10,-4.478 10,-10 0,-5.522 -4.477,-10 -10,-10 H 35.324 c -8.45,0 -15.324,-6.874 -15.324,-15.324 0,-8.449 6.874,-15.323 15.324,-15.323 h 441.353 c 8.449,0 15.323,6.874 15.323,15.324 0,8.449 -6.874,15.323 -15.323,15.323 H 301.206 c -5.522,0 -10,4.478 -10,10 0,5.522 4.478,10 10,10 h 175.471 c 19.478,0 35.323,-15.847 35.323,-35.324 0,-19.477 -15.846,-35.323 -35.323,-35.323 z M 234.475,171.435 c 0,-11.869 9.656,-21.525 21.525,-21.525 11.869,0 21.525,9.656 21.525,21.525 0,11.87 -9.656,21.526 -21.525,21.526 -11.869,0 -21.525,-9.656 -21.525,-21.526 z M 66.977,419.621 v -17.636 c 0,-104.228 84.795,-189.023 189.023,-189.023 104.228,0 189.023,84.796 189.023,189.023 v 17.636 z"
         style="fill:#422002;fill-opacity:1" />
    </g>
  </g>
  <path
     style="fill:none;stroke:#ffffff;stroke-width:15;stroke-linecap:round;stroke-linejoin:miter;stroke-miterlimit:4;stroke-dasharray:none;stroke-opacity:1"
     d="m 153.49153,277.69491 c 15.64827,-24.71233 41.11405,-29.63505 61.28813,-33.62711"
     id="path4659"
     inkscape:connector-curvature="0"
     sodipodi:nodetypes="cc" />
</svg>
