<?xml version="1.0"?>
<svg xmlns="http://www.w3.org/2000/svg" width="512" height="512" viewBox="0 0 128 128"><g><path d="M29.707,121.693H98.293l14.221-52.54a13.677,13.677,0,0,0-25.3-7.225,13.659,13.659,0,0,0-23.218,0,13.659,13.659,0,0,0-23.218,0,13.677,13.677,0,0,0-25.3,7.225Z" fill="#fa163f"/><circle cx="64" cy="15.868" r="9.561" fill="#fa163f"/><path d="M73.45,17.321h-.011a9.549,9.549,0,0,1-18.879,0h-.01A44.134,44.134,0,0,0,19.905,59.082l.008.013a13.646,13.646,0,0,1,20.869,2.833,13.659,13.659,0,0,1,23.218,0,13.659,13.659,0,0,1,23.218,0A13.646,13.646,0,0,1,108.087,59.1l.008-.013A44.134,44.134,0,0,0,73.45,17.321Z" fill="#f4cb1c"/><path d="M101.11,36.57l-1.87,1.55a11.051,11.051,0,0,1-13.95.14,11.033,11.033,0,0,0-13.52-.21l-1.14.86a11.07,11.07,0,0,1-13.26,0l-1.14-.86a11.034,11.034,0,0,0-13.52.21,11.041,11.041,0,0,1-13.95-.14l-1.87-1.55A44.2,44.2,0,0,1,54.55,17.32h.01a9.549,9.549,0,0,0,18.88,0h.01A44.2,44.2,0,0,1,101.11,36.57Z" fill="#dcf2f7"/><path d="M109.808,58.32a45.743,45.743,0,0,0-34.5-42.352c0-.034.005-.066.005-.1a11.312,11.312,0,0,0-22.623,0c0,.037.006.073.006.109a45.348,45.348,0,0,0-16.53,7.989,1.75,1.75,0,0,0,2.126,2.781,41.861,41.861,0,0,1,14.985-7.309,11.3,11.3,0,0,0,21.454-.01A42.209,42.209,0,0,1,98.8,36.213l-.68.565a9.323,9.323,0,0,1-11.74.113,12.784,12.784,0,0,0-15.665-.242l-1.142.858a9.33,9.33,0,0,1-11.151,0l-1.142-.858a12.781,12.781,0,0,0-15.664.242,9.323,9.323,0,0,1-11.74-.113l-.658-.547a42.515,42.515,0,0,1,3.465-4.345A1.749,1.749,0,1,0,30.1,29.528a45.8,45.8,0,0,0-4.557,5.915l0,0a1.752,1.752,0,0,0-.207.316,45.807,45.807,0,0,0-7.14,22.557,15.383,15.383,0,0,0-4.457,10.833,1.754,1.754,0,0,0,.061.457L28.018,122.15a1.749,1.749,0,0,0,1.689,1.293h41.46a1.75,1.75,0,0,0,0-3.5H65.75V62.484a11.857,11.857,0,0,1,19.666-.073l-5.287,57.532H79.5a1.75,1.75,0,0,0,0,3.5h4.824a1.75,1.75,0,0,0,0-3.5h-.678l5.274-57.39a11.912,11.912,0,0,1,21.844,6.375L96.954,119.943H92.56a1.75,1.75,0,0,0,0,3.5h5.733a1.75,1.75,0,0,0,1.689-1.293L114.2,69.609a1.754,1.754,0,0,0,.061-.457A15.38,15.38,0,0,0,109.808,58.32ZM64,23.68a7.812,7.812,0,1,1,7.811-7.812A7.821,7.821,0,0,1,64,23.68ZM17.238,68.928a11.912,11.912,0,0,1,21.844-6.375l5.274,57.39H31.046Zm30.633,51.015L42.583,62.411a11.858,11.858,0,0,1,19.667.073v57.459Zm39.347-60.95a15.407,15.407,0,0,0-23.218,0,15.407,15.407,0,0,0-23.218,0,15.4,15.4,0,0,0-18.863-3.459A42.346,42.346,0,0,1,27.33,39.212l.31.258a12.834,12.834,0,0,0,16.164.153,9.289,9.289,0,0,1,11.377-.175l1.142.858a12.851,12.851,0,0,0,15.354,0l1.141-.858a9.29,9.29,0,0,1,11.378.175,12.834,12.834,0,0,0,16.164-.153l.332-.277a42.252,42.252,0,0,1,5.4,16.344,15.4,15.4,0,0,0-18.869,3.456Z" fill="#022625"/></g></svg>
